<svg xmlns="http://www.w3.org/2000/svg" width="233" height="233" fill="none" viewBox="0 0 233 233">
  <circle cx="116.5" cy="116.5" r="56.5" fill="#FB0"/>
  <circle cx="194" cy="116" r="11" fill="#FB0"/>
  <circle cx="116" cy="39" r="11" fill="#FB0"/>
  <circle cx="39" cy="116" r="11" fill="#FB0"/>
  <circle cx="116" cy="194" r="11" fill="#FB0"/>
  <circle cx="170.947" cy="61.346" r="11" fill="#FB0" transform="rotate(-45 170.947 61.346)"/>
  <circle cx="61.346" cy="62.053" r="11" fill="#FB0" transform="rotate(-45 61.346 62.053)"/>
  <circle cx="61.346" cy="170.947" r="11" fill="#FB0" transform="rotate(-45 61.346 170.947)"/>
  <circle cx="170.947" cy="171.654" r="11" fill="#FB0" transform="rotate(-45 170.947 171.654)"/>
  <circle cx="187.902" cy="86.377" r="11" fill="#FB0" transform="rotate(-22.5 187.902 86.377)"/>
  <circle cx="86.373" cy="45.087" r="11" fill="#FB0" transform="rotate(-22.5 86.373 45.087)"/>
  <circle cx="44.7" cy="145.693" r="11" fill="#FB0" transform="rotate(-22.5 44.7 145.693)"/>
  <circle cx="145.688" cy="188.289" r="11" fill="#FB0" transform="rotate(-22.5 145.688 188.289)"/>
  <circle cx="145.688" cy="44.705" r="11" fill="#FB0" transform="rotate(-67.5 145.688 44.705)"/>
  <circle cx="44.7" cy="87.301" r="11" fill="#FB0" transform="rotate(-67.5 44.7 87.3)"/>
  <circle cx="86.372" cy="187.906" r="11" fill="#FB0" transform="rotate(-67.5 86.372 187.906)"/>
  <circle cx="187.902" cy="146.617" r="11" fill="#FB0" transform="rotate(-67.5 187.902 146.617)"/>
  <circle cx="225.5" cy="115.5" r="7.5" fill="#FB0"/>
  <circle cx="115.5" cy="7.5" r="7.5" fill="#FB0"/>
  <circle cx="7.5" cy="115.5" r="7.5" fill="#FB0"/>
  <circle cx="115.5" cy="225.5" r="7.5" fill="#FB0"/>
  <circle cx="192.868" cy="38.718" r="7.5" fill="#FB0" transform="rotate(-45 192.868 38.718)"/>
  <circle cx="38.718" cy="40.132" r="7.5" fill="#FB0" transform="rotate(-45 38.718 40.132)"/>
  <circle cx="38.718" cy="192.868" r="7.5" fill="#FB0" transform="rotate(-45 38.718 192.868)"/>
  <circle cx="192.868" cy="194.282" r="7.5" fill="#FB0" transform="rotate(-45 192.868 194.282)"/>
</svg>
